<?xml version="1.0" encoding="iso-8859-1"?>
<!-- Generator: Adobe Illustrator 19.0.0, SVG Export Plug-In . SVG Version: 6.00 Build 0)  -->
<svg version="1.1" id="Capa_1" xmlns="http://www.w3.org/2000/svg" xmlns:xlink="http://www.w3.org/1999/xlink" x="0px" y="0px"
	 viewBox="0 0 512 512" style="enable-background:new 0 0 512 512;" xml:space="preserve">
<g>
	<g>
		<path d="M377.743,162.509l28.102-41.617l0.091-19.354l-0.015-0.348C403.902,52.859,364.404,15,316,15
			c-3.133,0-6.268,0.182-9.381,0.505C292.192,5.714,274.773,0,256,0s-36.192,5.714-50.618,15.505C202.269,15.182,199.134,15,196,15
			c-48.404,0-87.902,37.859-89.921,86.19l-0.015,0.348l0.091,19.354l28.102,41.617C89.044,198.445,60,253.891,60,316
			c0,108.075,87.925,196,196,196s196-87.925,196-196C452,253.891,422.956,198.445,377.743,162.509z M373.722,88.548
			c-9.363-4.859-18.996-9.123-28.856-12.764c-1.538-9.775-4.611-19.008-8.993-27.436C354.168,54.722,368.401,69.681,373.722,88.548z
			 M340.399,106.223c10.117,4.067,19.944,8.882,29.415,14.421l-16.908,25.038c-7.043-4.023-14.359-7.617-21.911-10.756
			L340.399,106.223z M256,30c24.6,0,45.746,14.665,55.006,35.904C293.098,62.001,274.679,60,256,60
			c-18.679,0-37.098,2.001-55.006,5.904C210.254,44.664,231.4,30,256,30z M311.874,96.927l-9.389,28.656
			c-10.21-2.493-20.725-4.197-31.485-5.015V90.496C284.888,91.4,298.558,93.558,311.874,96.927z M240.999,90.497v30.073
			c-10.757,0.817-21.269,2.521-31.477,5.013l-9.371-28.661C213.459,93.556,227.121,91.4,240.999,90.497z M176.127,48.347
			c-4.383,8.428-7.455,17.661-8.993,27.436c-9.86,3.642-19.493,7.905-28.856,12.764C143.599,69.681,157.832,54.723,176.127,48.347z
			 M181.015,134.923c-7.555,3.14-14.875,6.735-21.92,10.76l-16.908-25.039c9.479-5.544,19.315-10.362,29.441-14.431L181.015,134.923
			z M256,482c-91.533,0-166-74.467-166-166s74.467-166,166-166s166,74.467,166,166S347.533,482,256,482z"/>
	</g>
</g>
<g>
	<g>
		<path d="M352.166,219.833l-10.606-10.607l-43.483,43.483c-25.389-16.89-58.767-16.89-84.154,0l-43.482-43.482l-10.606,10.607
			c-25.651,25.65-39.777,59.803-39.777,96.167s14.126,70.516,39.777,96.167l21.213-21.213c-19.984-19.984-30.99-46.604-30.99-74.954
			c0-23.271,7.416-45.377,21.127-63.604l21.526,21.526c-19.631,29.508-16.452,69.815,9.551,95.818
			c14.816,14.816,34.278,22.225,53.74,22.225c19.462,0,38.924-7.408,53.74-22.225l-21.213-21.213
			c-17.936,17.935-47.119,17.936-65.055,0c-14.222-14.222-17.155-35.512-8.821-52.663L256,337.213l84.816-84.817
			c13.711,18.227,21.127,40.332,21.127,63.604c0,28.35-11.006,54.969-30.99,74.954l21.213,21.213
			c25.651-25.65,39.777-59.803,39.777-96.167C391.943,279.636,377.817,245.484,352.166,219.833z M256,294.787l-20.135-20.136
			c12.672-6.157,27.598-6.157,40.27,0L256,294.787z"/>
	</g>
</g>
<g>
</g>
<g>
</g>
<g>
</g>
<g>
</g>
<g>
</g>
<g>
</g>
<g>
</g>
<g>
</g>
<g>
</g>
<g>
</g>
<g>
</g>
<g>
</g>
<g>
</g>
<g>
</g>
<g>
</g>
</svg>
