<svg id="Layer_1" enable-background="new 0 0 511.93 511.93" height="512" viewBox="0 0 511.93 511.93" width="512" xmlns="http://www.w3.org/2000/svg"><g><path d="m249.974 467.644-51.963 37.753c37.216 8.803 79.427 8.704 116.582-.262l-51.602-37.491c-3.881-2.82-9.136-2.82-13.017 0z"/><path d="m322.577 269.241-21.43-65.955c-1.482-4.562-5.734-7.651-10.531-7.651h-69.349c-4.797 0-9.048 3.089-10.531 7.651l-21.431 65.955c-1.482 4.562.141 9.56 4.022 12.38l56.105 40.763c3.881 2.82 9.136 2.82 13.017 0l56.105-40.763c3.882-2.82 5.506-7.818 4.023-12.38z"/><path d="m49.932 311.763-48.966-35.577c3.052 39.103 14.876 75.735 33.502 107.931l19.487-59.975c1.482-4.561-.142-9.559-4.023-12.379z"/><path d="m416.124 329.219-64.432-25.907c-3.536-1.422-7.556-.925-10.639 1.315l-64.551 46.899c-2.885 2.096-4.584 5.454-4.564 9.02l.387 68.945c.02 3.522 1.714 6.825 4.564 8.896l75.299 54.709c38.238-15.614 71.849-40.23 98.213-71.229l-27.877-85.797c-1.013-3.118-3.357-5.627-6.4-6.851z"/><path d="m240.486 429.48-.387-68.945c-.02-3.522-1.714-6.825-4.564-8.896l-66.03-47.973c-2.782-2.021-6.345-2.635-9.643-1.662l-66.566 19.65c-3.501 1.034-6.268 3.726-7.396 7.198l-28.69 88.298c27.122 33.474 62.506 59.952 103.049 76.322l75.663-54.972c2.885-2.096 4.584-5.454 4.564-9.02z"/><path d="m83.398 291.38 66.566-19.65c3.501-1.034 6.268-3.726 7.396-7.198l25.167-77.453c1.035-3.186.572-6.669-1.259-9.474l-37.138-56.889c-2.044-3.132-5.532-5.02-9.272-5.02h-92.918c-23.108 35.266-37.763 76.586-41.054 121.08l72.869 52.943c2.782 2.021 6.345 2.635 9.643 1.661z"/><path d="m169.861 101.887 37.138 56.889c2.044 3.132 5.532 5.02 9.272 5.02h80.302c3.522 0 6.834-1.675 8.92-4.513l42.493-57.781c2.113-2.874 2.713-6.589 1.611-9.982l-26.859-82.661c-39.868-11.081-86.006-11.812-126.358-1.937l-27.778 85.491c-1.035 3.186-.572 6.669 1.259 9.474z"/><path d="m140.392 76.206 18.599-57.239c-35.516 14.564-67.039 36.888-92.442 64.89h63.313c4.796 0 9.048-3.089 10.53-7.651z"/><path d="m329.647 187.97 25.372 78.087c1.013 3.119 3.357 5.628 6.4 6.852l64.432 25.907c3.536 1.422 7.556.925 10.639-1.315l74.554-54.167c-2.279-46.99-17.216-90.644-41.455-127.639h-86.918c-3.522 0-6.834 1.675-8.92 4.513l-42.493 57.781c-2.114 2.873-2.713 6.588-1.611 9.981z"/><path d="m454.966 332.887 18.565 57.138c19.435-31.603 32.203-67.752 36.346-106.49l-50.888 36.973c-3.882 2.819-5.505 7.817-4.023 12.379z"/><path d="m388.627 83.857h56.353c-23.46-25.86-52.134-46.888-84.357-61.426l17.473 53.775c1.482 4.562 5.734 7.651 10.531 7.651z"/></g></svg>