<svg id="Capa_1" enable-background="new 0 0 512 512" height="512" viewBox="0 0 512 512" width="512" xmlns="http://www.w3.org/2000/svg"><g><path d="m488.468 88.177h-464.936c-12.975 0-23.532 10.557-23.532 23.532v288.581c0 12.976 10.557 23.532 23.532 23.532h464.936c12.976 0 23.532-10.557 23.532-23.532v-288.581c0-12.975-10.557-23.532-23.532-23.532zm0 320.646h-464.936c-4.705 0-8.532-3.828-8.532-8.532v-83.35h433.39c4.142 0 7.5-3.358 7.5-7.5s-3.358-7.5-7.5-7.5h-105.682c-5.595-43.174-42.522-76.139-86.743-76.139-44.005 0-81.139 33.048-86.749 76.139h-154.216v-91.882h24.565c4.142 0 7.5-3.358 7.5-7.5s-3.358-7.5-7.5-7.5h-24.565v-83.35c0-4.705 3.828-8.532 8.532-8.532h464.936c4.705 0 8.532 3.828 8.532 8.532v83.35h-425.371c-4.142 0-7.5 3.358-7.5 7.5s3.358 7.5 7.5 7.5h425.371v91.882h-16.548c-4.142 0-7.5 3.358-7.5 7.5s3.358 7.5 7.5 7.5h16.548v83.35c0 4.704-3.828 8.532-8.532 8.532zm-304.101-106.882c5.489-34.747 35.799-61.139 71.599-61.139 35.978 0 66.146 26.326 71.615 61.139z"/></g></svg>